<?xml version="1.0" ?><svg id="Layer_1" style="enable-background:new 0 0 1024 1024;" version="1.1" viewBox="0 0 1024 1024" xml:space="preserve" xmlns="http://www.w3.org/2000/svg" xmlns:xlink="http://www.w3.org/1999/xlink"><style type="text/css">
	.st0{opacity:0.9;fill:url(#SVGID_1_);}
	.st1{fill-rule:evenodd;clip-rule:evenodd;fill:#FFFFFF;}
</style><g><linearGradient gradientTransform="matrix(0.7071 0.7071 -0.7071 0.7071 252.5445 -130.9254)" gradientUnits="userSpaceOnUse" id="SVGID_1_" x1="277.198" x2="999.4747" y1="-89.9151" y2="632.3616"><stop offset="0" style="stop-color:#3C5A99"/><stop offset="1" style="stop-color:#2B1E99"/></linearGradient><path class="st0" d="M441.4,993.8L30.6,582.9c-38.9-38.9-38.9-102.5,0-141.4L441.4,30.7c38.9-38.9,102.5-38.9,141.4,0l410.8,410.8   c38.9,38.9,38.9,102.5,0,141.4L582.8,993.8C543.9,1032.7,480.3,1032.7,441.4,993.8z"/><path class="st1" d="M454.5,515.6v211.6c0,3,2.5,5.5,5.5,5.5h78.6c3,0,5.5-2.5,5.5-5.5V512.1h57c2.9,0,5.3-2.2,5.5-5l5.5-64.8   c0.3-3.2-2.3-6-5.5-6h-62.5v-46c0-10.8,8.7-19.5,19.5-19.5h43.9c3,0,5.5-2.5,5.5-5.5v-64.8c0-3-2.5-5.5-5.5-5.5h-74.2   c-43.5,0-78.8,35.3-78.8,78.8v62.5h-39.3c-3,0-5.5,2.5-5.5,5.5v64.8c0,3,2.5,5.5,5.5,5.5h39.3V515.6z"/></g></svg>