<?xml version="1.0" ?><svg id="Layer_1" style="enable-background:new 0 0 1024 1024;" version="1.1" viewBox="0 0 1024 1024" xml:space="preserve" xmlns="http://www.w3.org/2000/svg" xmlns:xlink="http://www.w3.org/1999/xlink"><style type="text/css">
	.st0{fill:url(#SVGID_1_);}
	.st1{fill:#FFFFFF;}
</style><g><linearGradient gradientTransform="matrix(0.7071 0.7071 -0.7071 0.7071 252.5445 -130.9254)" gradientUnits="userSpaceOnUse" id="SVGID_1_" x1="203.1571" x2="1306.8851" y1="-164.6176" y2="939.1104"><stop offset="1.104800e-03" style="stop-color:#FBE18A"/><stop offset="0.2094" style="stop-color:#FCBB45"/><stop offset="0.3765" style="stop-color:#F75274"/><stop offset="0.5238" style="stop-color:#D53692"/><stop offset="0.7394" style="stop-color:#8F39CE"/><stop offset="1" style="stop-color:#5B4FE9"/></linearGradient><path class="st0" d="M441.9,993.8L31,582.9C-7.8,544-7.8,480.4,31,441.5L441.9,30.7c38.9-38.9,102.5-38.9,141.4,0l410.8,410.8   c38.9,38.9,38.9,102.5,0,141.4L583.3,993.8C544.4,1032.7,480.8,1032.7,441.9,993.8z"/><circle class="st1" cx="646.4" cy="391.3" r="26.8"/><path class="st1" d="M527.1,398.9c-62.2,0-112.8,50.6-112.8,112.8c0,62.2,50.6,112.8,112.8,112.8c62.2,0,112.8-50.6,112.8-112.8   C639.8,449.5,589.2,398.9,527.1,398.9z M527.1,583.9c-39.8,0-72.2-32.4-72.2-72.2s32.4-72.2,72.2-72.2c39.8,0,72.2,32.4,72.2,72.2   S566.9,583.9,527.1,583.9z"/><path class="st1" d="M616.6,740.6H433.8c-75.8,0-137.5-61.7-137.5-137.5V420.3c0-75.8,61.7-137.5,137.5-137.5h182.8   c75.8,0,137.5,61.7,137.5,137.5v182.8C754.1,678.9,692.4,740.6,616.6,740.6z M433.8,325.8c-52.1,0-94.5,42.4-94.5,94.5v182.8   c0,52.1,42.4,94.5,94.5,94.5h182.8c52.1,0,94.5-42.4,94.5-94.5V420.3c0-52.1-42.4-94.5-94.5-94.5H433.8z"/></g></svg>