<?xml version="1.0" ?><svg id="Layer_1" style="enable-background:new 0 0 1024 1024;" version="1.1" viewBox="0 0 1024 1024" xml:space="preserve" xmlns="http://www.w3.org/2000/svg" xmlns:xlink="http://www.w3.org/1999/xlink"><style type="text/css">
	.st0{fill:url(#SVGID_1_);}
	.st1{fill:#FFFFFF;}
</style><g><linearGradient gradientTransform="matrix(0.7071 0.7071 -0.7071 0.7071 252.5445 -130.9254)" gradientUnits="userSpaceOnUse" id="SVGID_1_" x1="277.1903" x2="999.467" y1="-89.9227" y2="632.354"><stop offset="0" style="stop-color:#007AB5"/><stop offset="1" style="stop-color:#0046E5"/></linearGradient><path class="st0" d="M441.4,993.8L30.6,582.9c-38.9-38.9-38.9-102.5,0-141.4L441.4,30.7c38.9-38.9,102.5-38.9,141.4,0l410.8,410.8   c38.9,38.9,38.9,102.5,0,141.4L582.8,993.8C543.9,1032.7,480.3,1032.7,441.4,993.8z"/><path class="st1" d="M348.4,439.5H424v243h-75.6V439.5z M386.2,318.7c24.2,0,43.8,19.6,43.8,43.8c0,24.2-19.6,43.8-43.8,43.8   c-24.2,0-43.8-19.7-43.8-43.8C342.3,338.4,361.9,318.7,386.2,318.7"/><path class="st1" d="M471.4,439.5h72.4v33.2h1c10.1-19.1,34.7-39.2,71.5-39.2c76.5,0,90.6,50.3,90.6,115.7v133.3h-75.5V564.3   c0-28.2-0.6-64.4-39.3-64.4c-39.3,0-45.3,30.7-45.3,62.4v120.2h-75.5V439.5z"/></g></svg>