<?xml version="1.0" ?><svg id="Layer_1" style="enable-background:new 0 0 1024 1024;" version="1.1" viewBox="0 0 1024 1024" xml:space="preserve" xmlns="http://www.w3.org/2000/svg" xmlns:xlink="http://www.w3.org/1999/xlink"><style type="text/css">
	.st0{fill:url(#SVGID_1_);}
	.st1{fill-rule:evenodd;clip-rule:evenodd;fill:#FFFFFF;}
</style><g><linearGradient gradientTransform="matrix(0.7071 0.7071 -0.7071 0.7071 252.5445 -130.9254)" gradientUnits="userSpaceOnUse" id="SVGID_1_" x1="277.0928" x2="1000.1984" y1="-90.6388" y2="632.4668"><stop offset="0" style="stop-color:#FC4D3F"/><stop offset="1" style="stop-color:#CD083F"/></linearGradient><path class="st0" d="M441.9,994.4L30.4,582.9c-38.9-38.9-38.9-102.5,0-141.4L441.9,30.1c38.9-38.9,102.5-38.9,141.4,0l411.4,411.4   c38.9,38.9,38.9,102.5,0,141.4L583.3,994.4C544.4,1033.3,480.7,1033.3,441.9,994.4z"/><path class="st1" d="M482.5,597.3c-0.4,1.4-0.8,2.5-1.1,3.7c-17.4,68.3-19.4,83.4-37.3,115.1c-8.5,15.1-18.2,29.4-28.8,43   c-1.2,1.5-2.3,3.5-4.7,3.1c-2.6-0.6-2.8-2.9-3.1-5c-2.9-20.7-4.4-41.6-3.8-62.5c0.9-27.3,4.3-36.7,39.5-184.6   c0.5-2.3-0.1-4.1-0.8-6.2c-8.4-22.7-10.1-45.8-2.7-69.1c15.9-50.4,73.1-54.3,83.1-12.7c6.2,25.7-10.1,59.4-22.7,109.2   c-10.4,41.1,38,70.3,79.3,40.3c38.1-27.7,52.9-93.9,50.1-140.9C624,337,521.3,316.8,456.1,346.9c-74.7,34.5-91.7,127.2-58,169.5   c4.3,5.4,7.6,8.7,6.2,14.1c-2.2,8.5-4.1,17-6.4,25.4c-1.7,6.3-7,8.6-13.3,6c-12.4-5-22.8-13-31.2-23.4c-28.7-35.5-36.8-105.6,1-165   c42-65.8,120-92.4,191.3-84.4c85.1,9.7,138.9,67.8,149,133.8c4.6,30.1,1.3,104.2-40.9,156.6c-48.5,60.2-127.2,64.2-163.5,27.2   C487.5,604,485.2,600.6,482.5,597.3z"/></g></svg>