<?xml version="1.0" ?><svg id="Layer_1" style="enable-background:new 0 0 1024 1024;" version="1.1" viewBox="0 0 1024 1024" xml:space="preserve" xmlns="http://www.w3.org/2000/svg" xmlns:xlink="http://www.w3.org/1999/xlink"><style type="text/css">
	.st0{fill:url(#SVGID_1_);}
	.st1{fill:#FFFFFF;}
</style><g><linearGradient gradientTransform="matrix(0.7071 0.7071 -0.7071 0.7071 252.5445 -130.9254)" gradientUnits="userSpaceOnUse" id="SVGID_1_" x1="276.748" x2="999.8566" y1="-90.297" y2="632.8116"><stop offset="0" style="stop-color:#33CCFF"/><stop offset="1" style="stop-color:#337FFF"/></linearGradient><path class="st0" d="M441.4,994.4L29.9,582.9C-9,544-9,480.4,29.9,441.5L441.4,30.1c38.9-38.9,102.5-38.9,141.4,0l411.4,411.4   c38.9,38.9,38.9,102.5,0,141.4L582.8,994.4C543.9,1033.3,480.3,1033.3,441.4,994.4z"/><path class="st1" d="M728.1,378.3c-13.5,6.1-28.5,9.8-43.1,12.3c6.9-1.2,17.1-13.7,21.2-18.8c6.2-7.7,11.4-16.6,14.3-26.1   c0.4-0.7,0.6-1.7-0.1-2.2c-0.9-0.4-1.5-0.2-2.3,0.2c-16.3,8.7-33.2,15.1-51.1,19.6c-1.5,0.4-2.6,0-3.5-0.9   c-1.5-1.7-2.9-3.3-4.5-4.6c-7.5-6.4-15.6-11.5-24.8-15.2c-12-4.9-25.1-7-38-6.1c-12.6,0.8-24.9,4.4-36,10.2   c-11.2,5.8-21.1,14-29.1,23.7c-8.2,10.1-14.3,22.1-17.4,34.8c-3,12.2-2.7,24.3-0.9,36.7c0.3,2.1,0.1,2.3-1.8,2.1   c-70.2-10.4-128.4-35.6-175.7-89.4c-2.1-2.3-3.2-2.3-4.8,0.2c-20.7,31-10.6,80.8,15.2,105.2c3.4,3.3,7,6.5,10.8,9.5   c-1.4,0.3-18.6-1.6-33.9-9.5c-2.1-1.3-3.1-0.6-3.3,1.8c-0.2,3.4,0.1,6.4,0.6,10.1c4,31.4,25.7,60.5,55.5,71.8   c3.5,1.5,7.4,2.8,11.3,3.4c-6.8,1.5-13.8,2.6-33.2,1c-2.4-0.5-3.3,0.7-2.4,3.1c14.6,39.9,46.2,51.7,69.9,58.5   c3.2,0.6,6.3,0.6,9.5,1.3c-0.2,0.3-0.4,0.3-0.6,0.6c-7.8,12-35,20.9-47.7,25.3c-23,8.1-48.1,11.7-72.5,9.3c-3.9-0.6-4.7-0.5-5.8,0   c-1.1,0.7-0.1,1.6,1.1,2.6c4.9,3.3,10,6.2,15.1,8.9c15.5,8.2,31.6,14.7,48.4,19.4c87,24,185.1,6.4,250.4-58.6   c51.3-51,69.3-121.3,69.3-191.7c0-2.8,3.3-4.3,5.2-5.7c13.4-10,24.1-22,34.1-35.4c2.2-3,2.3-5.7,2.3-6.8c0-0.2,0-0.4,0-0.4   C729.8,377.2,729.8,377.5,728.1,378.3z"/></g></svg>