<?xml version="1.0" ?><svg id="Layer_1" style="enable-background:new 0 0 1024 1024;" version="1.1" viewBox="0 0 1024 1024" xml:space="preserve" xmlns="http://www.w3.org/2000/svg" xmlns:xlink="http://www.w3.org/1999/xlink"><style type="text/css">
	.st0{fill:url(#SVGID_1_);}
	.st1{fill:#FFFFFF;}
</style><g><linearGradient gradientTransform="matrix(0.7071 0.7071 -0.7071 0.7071 252.5445 -130.9254)" gradientUnits="userSpaceOnUse" id="SVGID_1_" x1="277.165" x2="999.4418" y1="-90.6096" y2="631.6671"><stop offset="0" style="stop-color:#FF0000"/><stop offset="1" style="stop-color:#850000"/></linearGradient><path class="st0" d="M441.9,993.3L31,582.4C-7.8,543.5-7.8,479.9,31,441L441.9,30.2c38.9-38.9,102.5-38.9,141.4,0L994.2,441   c38.9,38.9,38.9,102.5,0,141.4L583.3,993.3C544.4,1032.2,480.8,1032.2,441.9,993.3z"/><path class="st1" d="M721.7,454.9c0-51.8-42-93.8-93.8-93.8H388.1c-51.8,0-93.8,42-93.8,93.8v111.6c0,51.8,42,93.8,93.8,93.8h239.8   c51.8,0,93.8-42,93.8-93.8V454.9z M580.7,519.1l-107.5,53.2c-4.2,2.3-18.5-0.8-18.5-5.6V457.5c0-4.9,14.4-7.9,18.7-5.5l102.9,56   C580.5,510.5,585,516.7,580.7,519.1z"/></g></svg>